PathFileType	4	(X/Y/Z)	C:/Users/beibeiliu/ov580/test_trc/User1\sequence.34_training_dense_left.trc
DataRate	CameraRate	NumFrames	NumMarkers	Units	OrigDataRate	OrigDataStartFrame	OrigNumFrames
120	120	23	19	mm	120	118	234
Frame#	Time	ThumbCMC			ThumbMCP			ThumbIP			ThumbTip			IndexMCP			IndexPIP			IndexTip			MiddleMCP			MiddlePIP			MiddleTip			RingMCP			RingPIP			RingTip			PinkyMCP			PinkyPIP			PinkyTip			BackHand1			BackHand2			BackHand3	
		X0	Y0	Z0	X1	Y1	Z1	X2	Y2	Z2	X3	Y3	Z3	X4	Y4	Z4	X5	Y5	Z5	X6	Y6	Z6	X7	Y7	Z7	X8	Y8	Z8	X9	Y9	Z9	X10	Y10	Z10	X11	Y11	Z11	X12	Y12	Z12	X13	Y13	Z13	X14	Y14	Z14	X15	Y15	Z15	X16	Y16	Z16	X17	Y17	Z17	X18	Y18	Z18	
117	0.975	-107.527	2.0518	62.606	-80.5572	-25.7147	51.7774	-70.8785	-43.8694	39.298	-63.5813	-65.7845	27.4837	-117.71	-13.8305	-24.2843	-108.612	-32.2093	-46.4936	-100.071	-60.2499	-55.0847	-146.44	-24.8643	-29.0742	-139.3	-48.8261	-51.7405	-126.008	-79.2694	-57.0867	-153.034	-48.2122	-17.6297	-136.83	-75.595	-17.9292	-125.123	-81.5595	15.5546	-169.996	-62.6768	8.9504	-145.731	-79.5839	19.2296	-127.674	-61.4312	41.8877	-171.754	-8.4809	25.2026	-177.028	5.04997	62.2314	-147.033	13.4161	41.0473	
118	0.983333	-114.241	5.45469	57.7441	-84.6622	-19.5189	50.2017	-72.2785	-38.0724	37.7958	-55.8014	-58.7404	31.8597	-118.689	-12.9515	-24.9633	-109.012	-34.2894	-46.5712	-98.7686	-60.1796	-52.0713	-144.897	-28.6667	-29.3924	-133.785	-51.2253	-50.8578	-116.132	-83.4709	-52.7104	-151.606	-58.7861	-15.8268	-131.19	-81.3335	-8.98199	-118.833	-77.4811	25.7017	-164.12	-67.9232	12.1988	-139.481	-80.542	23.6065	-124.462	-56.1725	44.0192	-177.69	-13.0112	26.7424	-184.537	0.839795	59.5117	-149.978	15.2454	41.8014	
119	0.991667	-119.133	9.31117	54.9129	-86.0639	-11.2512	50.5219	-68.4857	-29.2321	39.195	-53.8744	-48.7108	33.5243	-121.382	-12.2262	-23.0711	-111.148	-32.8963	-44.6107	-94.6424	-60.1995	-50.4585	-146.517	-34.9597	-30.6659	-128.992	-59.1847	-50.5203	-105.406	-86.0483	-49.2375	-146.839	-60.9787	-13.9451	-119.933	-79.638	-4.92388	-112.292	-75.4701	26.9799	-156.262	-71.7984	14.2279	-131.387	-78.5131	28.8676	-122.386	-50.7284	45.887	-178.935	-19.1903	22.4518	-188.976	-5.69477	55.5	-159.918	12.8074	38.5511	
120	1	-123.999	16.8623	54.4878	-95.0246	-3.33012	51.5981	-72.5485	-19.3475	40.8037	-55.1578	-33.0562	37.2753	-125.832	-15.7394	-27.2776	-113.249	-34.3265	-43.4176	-92.4892	-55.4072	-49.7424	-146.568	-37.3487	-27.3635	-125.028	-59.1367	-48.4331	-101.192	-81.4826	-46.0461	-144.116	-58.7517	-11.0633	-115.573	-77.8514	-5.02162	-104.415	-71.3594	29.9486	-147.348	-73.1984	15.2628	-122.195	-72.7211	29.7283	-115.946	-51.953	46.7325	-181.414	-24.3018	26.4919	-191.848	-11.2791	55.9063	-161.793	11.7164	32.403	
121	1.00833	-129.28	21.0118	50.9396	-98.479	5.82588	50.9582	-74.1418	-6.06132	39.5062	-51.4067	-22.2777	32.5052	-129.1	-17.1693	-27.3316	-113.655	-34.2359	-44.278	-88.2389	-56.5419	-47.3268	-143.042	-41.764	-31.5405	-122.811	-55.7813	-47.9381	-95.7999	-79.0724	-45.4362	-141.132	-64.3773	-9.28138	-110.381	-78.2646	-2.0681	-98.8024	-68.507	27.5373	-146.259	-75.1495	17.5333	-118.109	-74.5043	30.4141	-113.677	-48.7585	48.776	-178.798	-28.9056	23.0548	-194.567	-15.491	56.0902	-170.109	9.32612	31.9428	
122	1.01667	-139.843	20.0957	49.9803	-103.536	11.077	45.4164	-75.1762	3.80573	35.96	-54.7281	-9.26386	30.2623	-130.646	-17.4584	-30.3724	-114.337	-32.2592	-44.8956	-88.9733	-47.275	-48.7114	-142.718	-42.9425	-30.8691	-118.017	-57.6767	-47.4181	-84.993	-72.4258	-44.6798	-135.447	-66.2437	-10.0743	-103.787	-75.2396	-1.3348	-94.7684	-64.6448	26.5825	-136.7	-77.5336	19.4079	-113.752	-70.2238	31.08	-113.941	-41.1864	45.9183	-179.902	-36.3634	21.9433	-197.909	-19.9895	52.8897	-173.452	6.75578	30.0164	
123	1.025	-143.44	24.1953	44.444	-107.278	17.4582	40.9541	-83.0821	10.3317	31.84	-59.4288	3.71574	30.1738	-132.924	-14.5908	-30.0643	-112.189	-34.4431	-47.5538	-82.4864	-45.5818	-48.0894	-140.193	-43.4124	-31.2575	-114.515	-60.4435	-45.2561	-80.9412	-67.4499	-42.6341	-134.176	-61.9427	-9.29955	-99.6849	-70.5035	-0.408549	-91.4195	-55.3881	28.6372	-136.381	-74.0109	20.0817	-110.536	-63.4686	32.6691	-112.218	-38.7861	50.1836	-181.435	-38.9696	25.5545	-196.904	-23.8697	49.3129	-180.838	0.0196237	29.6864	
124	1.03333	-152.69	22.189	42.2531	-117.734	19.7332	39.8825	-89.4681	20.3266	29.4629	-67.5308	13.6231	26.8358	-136.477	-18.9486	-29.0295	-115.324	-34.1279	-44.9941	-84.4397	-42.9533	-46.3825	-139.542	-43.2082	-30.6904	-110.189	-58.9713	-44.956	-77.1775	-62.6685	-41.4532	-130.789	-64.4495	-7.58983	-96.8945	-65.2144	-1.98364	-90.2386	-46.0005	29.0111	-131.898	-74.9025	23.4084	-107.755	-58.8618	35.4159	-115.646	-31.798	50.4967	-179.452	-41.5523	21.0206	-201.086	-31.4099	51.2051	-183.648	-3.94152	28.801	
125	1.04167	-162.713	21.8015	39.6461	-127.861	26.8978	39.0772	-101.297	27.2092	28.484	-77.6006	24.4886	22.5694	-140.681	-17.9656	-29.9442	-117.24	-29.853	-47.5479	-84.8649	-37.7129	-47.0845	-136.858	-46.5643	-32.7773	-108.364	-56.1997	-44.3289	-73.2722	-57.7438	-39.668	-126.782	-64.5864	-7.49123	-91.6464	-55.7161	0.846826	-89.7178	-41.8833	30.849	-127.786	-72.1033	23.6972	-105.008	-53.7124	34.7628	-116.206	-28.8048	50.5733	-179.602	-49.673	22.4961	-200.791	-38.7958	47.6502	-188.735	-9.76962	25.6452	
126	1.05	-170.289	19.2911	37.2561	-138.388	25.678	35.1955	-109.535	32.4839	21.3714	-86.6578	32.4617	16.9137	-141.405	-21.759	-35.2016	-118.041	-29.458	-48.7998	-83.7294	-34.2792	-47.2079	-140.265	-48.5513	-28.4325	-111.736	-51.1641	-46.158	-76.0849	-49.0947	-43.4258	-120.655	-63.6715	-8.61982	-92.2432	-52.978	-0.426546	-88.2538	-35.3582	25.4446	-123.101	-71.6282	24.3757	-103.611	-50.4224	30.9331	-117.738	-25.0216	48.279	-178.741	-54.097	20.151	-200.713	-44.1217	52.1383	-192.796	-19.355	22.0434	
127	1.05833	-179.012	15.8802	34.1549	-145.702	30.5588	31.2784	-120.969	32.6911	18.4468	-94.0448	39.5849	9.14062	-145.175	-25.9149	-34.7196	-122.092	-29.367	-49.7678	-87.5406	-29.8519	-50.7216	-138.287	-47.8338	-33.9359	-108.88	-50.4887	-46.5148	-73.9306	-44.8082	-44.0406	-121.657	-60.5318	-9.64798	-92.4402	-50.0684	-2.64994	-88.9905	-25.1715	22.991	-120.02	-68.8236	23.7798	-100.669	-47.3144	33.3065	-118.269	-20.4376	45.4421	-180.212	-55.8222	24.6261	-200.103	-51.3052	47.8786	-195.292	-26.2877	21.1882	
128	1.06667	-184.94	11.7623	33.3306	-152.86	28.6181	28.3165	-127.818	34.5445	14.4713	-105.897	42.6488	8.98991	-151.117	-27.3518	-33.744	-124.19	-30.431	-51.8173	-97.8324	-24.3035	-54.917	-138.352	-51.335	-33.2024	-110.987	-49.5014	-49.2282	-77.1897	-42.2774	-45.4355	-120.13	-60.3479	-10.6322	-93.5741	-46.7095	-6.16323	-90.99	-21.8471	20.7554	-121.759	-65.9573	20.7964	-100.991	-42.9137	30.61	-120.946	-16.6588	41.7989	-177.059	-60.5862	23.6055	-200.622	-56.5344	51.5385	-200.647	-28.2467	23.1126	
129	1.075	-189.432	8.35081	32.5299	-158.24	25.4581	26.5026	-133.682	34.6474	10.2666	-115.509	41.5457	6.42588	-156.947	-25.7294	-35.745	-128.016	-28.2732	-55.7547	-102.876	-22.4134	-58.747	-142.094	-54.4883	-30.9687	-113.24	-49.3596	-50.2183	-80.7431	-39.7326	-49.9096	-121.434	-59.9574	-10.5417	-93.8447	-43.4814	-6.6689	-93.3751	-20.5854	18.121	-118.827	-66.5907	20.5284	-103.203	-40.058	25.7044	-121.229	-14.2663	38.8709	-177.875	-64.0905	24.167	-200.148	-59.4811	50.9007	-200.873	-32.0762	21.4968	
130	1.08333	-192.39	3.8684	30.6972	-163.447	25.1654	21.5351	-140.914	35.033	8.68776	-121.79	45.9028	0.970355	-161.653	-27.4627	-37.0173	-134.539	-30.8701	-57.0071	-104.504	-22.2097	-61.5239	-145.685	-52.7366	-34.8439	-118.567	-50.0011	-52.2386	-87.2877	-36.9298	-54.5266	-126.067	-61.5183	-10.5649	-97.2615	-35.9997	-10.2777	-97.8225	-15.3817	16.6014	-118.331	-62.0924	17.2441	-105.934	-38.1175	22.9355	-123.462	-15.1852	38.2735	-175.602	-69.178	21.8994	-196.05	-63.5335	52.8406	-203.715	-37.2959	25.0002	
131	1.09167	-196.202	-1.01975	33.0749	-169.143	21.2351	21.457	-150.396	34.1494	7.43468	-129.708	44.2484	-2.56143	-163.683	-32.04	-39.4478	-142.877	-32.5649	-57.948	-112.502	-25.0372	-63.3025	-147.717	-55.867	-37.0651	-121.919	-49.8634	-55.2459	-88.8969	-35.6214	-58.4009	-125.513	-59.4687	-12.957	-98.0993	-37.3598	-11.4574	-99.3707	-17.3727	13.3402	-120.483	-60.5672	14.6314	-106.89	-35.8607	23.0205	-127.688	-12.8591	39.2882	-174.72	-71.553	26.3454	-196.94	-66.6514	52.8041	-203.873	-42.8005	27.0897	
132	1.1	-199.671	-4.21555	30.7299	-175.153	22.4627	18.4604	-157.139	33.367	1.65794	-140.291	45.2706	-6.11394	-167.679	-36.4401	-38.603	-144.812	-36.2924	-59.931	-119.636	-24.3708	-68.4621	-150.036	-57.5274	-38.8215	-124.408	-51.6896	-57.244	-93.2897	-33.429	-63.3775	-128.611	-56.9698	-18.4888	-101.937	-34.7085	-14.9796	-105.025	-12.5199	6.77062	-120.692	-59.6291	11.9107	-110.217	-32.2017	19.125	-131.794	-15.32	36.0102	-173.406	-70.5819	23.479	-195.934	-68.5596	57.1694	-204.35	-46.2589	21.9735	
133	1.10833	-203.515	-4.54431	29.5683	-182.197	19.6879	19.5996	-163.2	30.7426	1.52786	-145.887	46.35	-12.9071	-174.669	-38.3076	-39.2676	-151.39	-38.0367	-61.1167	-125.182	-24.2036	-72.8216	-154.246	-59.8964	-38.0747	-132.76	-50.3973	-61.3605	-101.714	-35.489	-67.0098	-130.202	-62.7471	-16.2367	-108.1	-35.4643	-21.5053	-110.101	-11.0272	4.12977	-119.017	-61.3716	11.7014	-108.502	-33.1852	15.9616	-131.514	-15.9327	29.6673	-176.254	-74.1863	27.2033	-192.788	-72.2365	57.4565	-204.989	-51.2899	27.3285	
134	1.11667	-204.94	-8.64531	34.4366	-182.151	14.7423	16.0612	-167.427	28.0708	-1.61087	-153.039	43.1624	-13.4074	-178.219	-42.0934	-38.7831	-158.717	-36.6915	-66.744	-132.567	-27.8065	-73.8323	-159.361	-60.5034	-39.6798	-137.672	-55.2441	-61.2564	-109.276	-31.8241	-72.7202	-132.23	-62.6819	-19.1678	-110.921	-34.4354	-24.9276	-111.559	-11.878	2.59317	-117.285	-59.2949	7.45999	-114.468	-29.7642	11.2763	-136.552	-15.0508	27.3343	-171.649	-74.8371	24.2568	-190.918	-74.2714	53.889	-206.2	-53.4331	26.0576	
135	1.125	-208.311	-11.8132	37.7215	-188.974	13.7601	19.7309	-173.295	27.0571	-2.74783	-161.362	44.2697	-15.7573	-180.525	-44.8731	-41.844	-161.022	-42.3308	-65.3157	-137.02	-29.7879	-77.4758	-162.001	-63.1477	-38.8679	-143.533	-55.6447	-62.8484	-110.229	-35.5844	-74.2964	-136.312	-59.6605	-23.732	-111.572	-34.4153	-25.9344	-114.992	-10.7665	-3.49474	-123.775	-61.0319	7.2128	-115.087	-29.5575	10.5963	-136.14	-13.6083	27.478	-174.154	-76.3817	26.0678	-184.105	-78.1583	57.0735	-205.75	-55.7465	29.4777	
136	1.13333	-205.667	-17.239	35.5586	-191.054	10.4568	16.4374	-181.575	25.2142	-0.736051	-168.882	40.8888	-18.9387	-185.358	-48.257	-40.9509	-167.858	-47.363	-64.5541	-145.561	-34.7233	-78.5122	-164.926	-66.1001	-39.2436	-146.582	-57.5379	-65.2298	-120.736	-36.1964	-79.7445	-138.136	-63.4692	-21.6787	-118.302	-38.9057	-30.6125	-116.381	-12.046	-5.1693	-120.948	-58.428	3.49521	-114.488	-31.1794	8.61009	-140.425	-14.2692	27.3963	-174.42	-76.9548	29.2671	-183.247	-79.8131	60.082	-203.866	-60.1778	32.1273	
137	1.14167	-208.152	-21.4154	37.8462	-196.601	6.89817	20.0587	-185.071	19.3803	-4.06627	-175.326	35.2031	-20.8285	-191.435	-52.3062	-35.2429	-177.598	-48.4337	-65.7973	-156.626	-34.8729	-82.5191	-169.33	-68.5739	-34.7277	-151.811	-61.3218	-66.2465	-125.86	-43.3421	-80.9768	-139.891	-67.0916	-21.0429	-119.671	-40.643	-31.4635	-121.979	-11.6925	-9.44136	-124.185	-59.7406	2.06169	-118.259	-30.7819	5.60624	-137.857	-14.493	21.4731	-173.229	-80.6158	30.1501	-180.961	-79.4079	63.2628	-206.417	-62.5125	33.9325	
138	1.15	-210.563	-23.8629	42.9842	-199.598	1.84837	21.1198	-193.845	18.1249	-6.54615	-185.65	33.0234	-21.4263	-195.377	-57.3984	-35.822	-180.383	-55.0131	-64.7976	-163.056	-38.0651	-84.3483	-170.106	-74.5335	-37.1252	-156.581	-65.0677	-66.2533	-135.945	-47.3699	-84.406	-145.23	-68.6202	-22.5294	-127.696	-40.3939	-36.244	-123.121	-16.0266	-14.7263	-128.396	-58.5456	-1.96325	-121.227	-30.1948	1.69884	-139.57	-14.9941	18.9035	-170.068	-85.026	28.1529	-180.041	-80.4035	66.4609	-206.107	-65.5888	35.0848	
139	1.15833	-214.088	-25.298	41.6747	-204.529	-0.41134	18.6556	-198.047	11.581	-5.58757	-191.574	24.743	-20.9684	-201.623	-60.7478	-34.9154	-189.225	-58.0768	-64.7748	-170.907	-45.8212	-81.3014	-172.782	-78.9012	-37.3536	-164.488	-71.3523	-63.1928	-147.324	-51.3803	-85.9693	-147.248	-69.1366	-25.3462	-130.93	-40.4146	-38.2793	-131.832	-14.5077	-18.6348	-130.786	-63.5882	-0.462518	-123.764	-33.2518	-2.65399	-141.45	-17.1547	21.7555	-171.538	-83.6496	33.5114	-176.69	-84.2672	62.9763	-203.566	-69.2489	41.4259	
